<svg version="1.2" baseProfile="tiny" viewBox="0 0 210.667 115.535" xmlns:xlink="http://www.w3.org/1999/xlink" xmlns="http://www.w3.org/2000/svg">
<path style="fill:#ffffff;" d="M209.6663,52.9555L209.6663,58.7992C209.6663,59.5548,209.047,60.1741,208.2928,60.1741L176.4399,60.1741L176.4399,109.474C176.4399,110.1776,175.9765,110.7542,175.4098,110.7542L167.2296,110.7542C166.6629,110.7542,166.1973,110.1776,166.1973,109.474L166.1973,2.2795C166.1973,1.5759,166.6629,1.0005,167.2296,1.0005L175.4098,1.0005C175.9765,1.0005,176.4399,1.5759,176.4399,2.2795L176.4399,51.5794L208.2928,51.5794C209.047,51.5794,209.6663,52.1987,209.6663,52.9555M13.3057,2.2795C13.3057,1.5759,12.8423,1.0005,12.2756,1.0005L7.8768,1.0005C7.308,1.0005,6.8446,1.5759,6.8446,2.2795L6.8446,109.4729C6.8446,110.1765,7.308,110.753,7.8768,110.753L12.2756,110.753C12.8423,110.753,13.3057,110.1765,13.3057,109.4729L13.3057,110.753L37.6167,110.753C37.05,110.753,36.5844,111.2175,36.5844,111.7836L36.5844,113.5027C36.5844,114.07,37.05,114.5345,37.6167,114.5345L141.8863,114.5345C142.453,114.5345,142.9186,114.07,142.9186,113.5027L142.9186,111.7836C142.9186,111.2175,142.453,110.753,141.8863,110.753L161.7249,110.753L166.1952,110.753L166.1952,1.0005L13.3057,1.0005L13.3057,2.2795M4.0258,15.9438L4.0258,18.9789L2.0308,18.9789C1.4641,18.9789,1.0007,19.4434,1.0007,20.0107L1.0007,91.7406C1.0007,92.3067,1.4641,92.7723,2.0308,92.7723L4.0258,92.7723L4.0258,95.8074C4.0258,96.3735,4.4893,96.838,5.056,96.838L6.8446,96.838L6.8446,14.9133L5.056,14.9133C4.4893,14.9133,4.0258,15.3766,4.0258,15.9438Z"/>
</svg>