<svg version="1.2" baseProfile="tiny" id="EdgeSVG_NttHJ" x="0px" y="0px" width="210.667px" height="115.535px" viewBox="0 0 210.667 115.535" xmlns:xlink="http://www.w3.org/1999/xlink" xmlns="http://www.w3.org/2000/svg">
  <linearGradient id="SVGID_1_" gradientUnits="userSpaceOnUse" x1="0" y1="57.7676" x2="210.6675" y2="57.7676">
    <stop offset="0" style="stop-color:#000000;stop-opacity:0.5"/>
    <stop offset="1" style="stop-color:#000000;stop-opacity:0.5"/>
  </linearGradient>
  <path fill="url(#SVGID_1_)" d="M208.292,50.58H177.44V2.28c0-1.257-0.911-2.28-2.031-2.28h-8.18c-0.011,0-0.021,0.003-0.033,0.004&#xD;&#xA;&#x9;&#x9;V0H12.306v0.003C12.295,0.003,12.286,0,12.275,0H7.876c-1.12,0-2.031,1.023-2.031,2.28v11.633H5.056&#xD;&#xA;&#x9;&#x9;c-1.12,0-2.031,0.911-2.031,2.031v2.035H2.031C0.911,17.979,0,18.891,0,20.011v71.73c0,1.12,0.911,2.031,2.031,2.031h0.994v2.035&#xD;&#xA;&#x9;&#x9;c0,1.12,0.911,2.031,2.031,2.031h0.789v11.635c0,1.258,0.911,2.28,2.031,2.28h4.399c0.011,0,0.021-0.003,0.031-0.004v0.004h23.281&#xD;&#xA;&#x9;&#x9;c0,0.011-0.003,0.021-0.003,0.031v1.719c0,1.12,0.911,2.031,2.031,2.031h104.271c1.12,0,2.031-0.911,2.031-2.031v-1.719&#xD;&#xA;&#x9;&#x9;c0-0.011-0.003-0.021-0.003-0.031h23.281v-0.004c0.011,0,0.021,0.004,0.033,0.004h8.18c1.12,0,2.031-1.022,2.031-2.28v-48.3h30.853&#xD;&#xA;&#x9;&#x9;c1.31,0,2.375-1.065,2.375-2.375v-5.844C210.667,51.646,209.602,50.58,208.292,50.58z"/>
</svg>